<svg width="353" height="75" viewBox="0 0 353 75" fill="none" xmlns="http://www.w3.org/2000/svg">
<g clip-path="url(#clip0_108_5)">
<path d="M45.5996 49.8855C41.8706 49.8855 38.6331 51.6423 36.8749 54.2234C36.0035 55.503 35.4663 56.9779 35.4663 58.5612C35.4663 63.3416 40.0111 67.237 45.5996 67.237C51.1882 67.237 55.733 63.3416 55.733 58.5612C55.733 56.9779 55.2009 55.503 54.3244 54.2234C52.5662 51.6423 49.3338 49.8855 45.5996 49.8855Z" fill="#3B3C98"/>
<path d="M116.533 49.8855C112.804 49.8855 109.567 51.6423 107.809 54.2234C106.937 55.503 106.4 56.9779 106.4 58.5612C106.4 63.3416 110.945 67.237 116.533 67.237C122.122 67.237 126.667 63.3416 126.667 58.5612C126.667 56.9779 126.134 55.503 125.258 54.2234C123.5 51.6423 120.267 49.8855 116.533 49.8855Z" fill="#3B3C98"/>
<path d="M146.933 41.2098V36.872L116.533 29.4325L81.0667 10.8447H25.3333V15.1826H55.7333V19.5205H0V23.8583H60.8V28.1962H10.1333V32.5341H35.4667V36.872H25.3333V41.2098H5.06667V45.5477H30.4V49.8856H25.3333V54.2235H10.1333V58.5613H30.4C30.4 57.0344 30.7648 55.5855 31.3322 54.2235C33.4298 49.1828 38.9931 45.5477 45.6 45.5477C52.212 45.5477 57.7702 49.1828 59.8678 54.2235C60.4302 55.5855 60.8 57.0344 60.8 58.5613H101.333C101.333 57.0344 101.698 55.5855 102.266 54.2235C104.363 49.1828 109.926 45.5477 116.533 45.5477C123.145 45.5477 128.704 49.1828 130.801 54.2235C131.364 55.5855 131.733 57.0344 131.733 58.5613H146.933V54.2235H152V41.2098H146.933Z" fill="#3B3C98"/>
<path d="M235.658 72.1391C233.634 73.2971 231.694 74.0633 229.838 74.438C227.982 74.8127 225.921 75 223.656 75C219.559 75 215.968 74.0804 212.882 72.2411C209.797 70.4019 207.231 67.8303 205.182 64.5266C203.133 61.2228 201.591 57.2887 200.555 52.7248C199.518 48.1609 199 43.1541 199 37.7044C199 32.2546 199.53 27.2136 200.591 22.5817C201.651 17.9499 203.206 13.9644 205.254 10.6267C207.303 7.289 209.846 4.68341 212.882 2.80995C215.919 0.936479 219.39 0 223.294 0C225.56 0 227.608 0.306539 229.44 0.919618C231.272 1.5327 233.055 2.38416 234.791 3.47411L231.826 17.064C230.862 16.451 229.79 15.906 228.609 15.4292C227.428 14.9523 226.018 14.7139 224.379 14.7139C215.799 14.7139 211.509 22.3774 211.509 37.7044C211.509 45.4021 212.617 51.0899 214.835 54.7684C217.052 58.4469 220.475 60.2861 225.102 60.2861C226.644 60.2861 228.006 60.1328 229.187 59.8263C230.368 59.5198 231.537 59.06 232.694 58.4469L235.658 72.1391ZM259.591 50.4769C259.109 50.3407 258.603 50.2553 258.073 50.2213C257.543 50.1873 257.085 50.1702 256.699 50.1702C254.675 50.1702 253.036 50.613 251.782 51.4986C250.529 52.3841 249.903 53.9168 249.903 56.0966C249.903 57.459 250.132 58.5319 250.589 59.3153C251.047 60.0987 251.614 60.6778 252.289 61.0525C252.963 61.4272 253.674 61.6486 254.421 61.7167C255.169 61.7849 255.807 61.8189 256.337 61.8189C257.301 61.8189 258.386 61.6486 259.591 61.308V50.4769ZM255.831 39.2372C256.217 39.2372 256.735 39.2543 257.386 39.2884C258.036 39.3224 258.772 39.3735 259.591 39.4416C259.543 36.785 258.88 35.065 257.603 34.2815C256.325 33.4981 254.674 33.1065 252.65 33.1065C251.541 33.1065 250.264 33.2938 248.818 33.6685C247.371 34.0432 245.805 34.6051 244.118 35.3544L242.961 29.7345C242.816 28.9853 242.611 27.8953 242.346 26.4648C242.081 25.0343 241.9 23.9103 241.804 23.0929C244.214 21.9348 246.492 21.1003 248.637 20.5894C250.782 20.0785 252.722 19.8231 254.457 19.8231C259.567 19.8231 263.519 21.5431 266.315 24.9832C269.111 28.4233 270.509 33.9239 270.509 41.4852V71.4239C268.629 72.1732 266.46 72.9055 264.002 73.6208C261.543 74.336 258.892 74.6937 256.048 74.6937C253.541 74.6937 251.264 74.3871 249.215 73.7741C247.167 73.161 245.407 72.1392 243.937 70.7087C242.467 69.2781 241.334 67.4049 240.539 65.0888C239.743 62.7727 239.346 59.9455 239.346 56.6078C239.346 53.2701 239.84 50.477 240.828 48.2291C241.816 45.9811 243.094 44.193 244.66 42.8647C246.227 41.5363 247.986 40.5996 249.938 40.0547C251.891 39.5098 253.855 39.2372 255.831 39.2372ZM290.537 22.3775C291.116 21.8326 291.923 21.3046 292.96 20.7937C293.996 20.2828 295.165 20.0274 296.466 20.0274C297.575 20.0274 298.479 20.0955 299.178 20.2317C299.877 20.3679 300.226 20.4019 300.226 20.3338V33.9237C299.118 33.7875 298.033 33.7535 296.973 33.8216C296.057 33.9578 295.105 34.1793 294.116 34.4858C293.128 34.7923 292.224 35.3543 291.405 36.1718C290.441 37.1254 289.754 38.4197 289.344 40.0546C288.935 41.6895 288.73 43.9374 288.73 46.7985V73.9783H277.884V33.4129H272.027L276.655 20.4361H288.73V24.4211C288.971 24.1486 289.188 23.8761 289.38 23.6035C289.573 23.3992 289.766 23.1778 289.959 22.9394C290.152 22.701 290.345 22.5137 290.537 22.3775ZM309.307 21.9688L315.996 19.823H322.334H327.029L327.616 29.7345H318.813L315.996 36.1718V43.12L322.334 50.1702C315.996 43.12 309.307 34.2817 328.249 56.6078L327.029 53.9514L330.08 60.5926L327.616 70.0955L322.334 73.6716L310.715 76.6276L309.307 70.0955L314.236 66.519L318.813 61.8189L309.307 52.7248L306.138 35.3544L309.307 21.9688ZM354.672 20.5383L365.662 20.5381V48.331C365.662 50.7151 365.806 52.7076 366.096 54.3085C366.385 55.9093 366.819 57.1695 367.397 58.0892C367.976 59.0088 368.687 59.6559 369.53 60.0306C370.374 60.4053 371.374 60.5926 372.531 60.5926C373.929 60.5926 375.182 60.4904 376.291 60.286L376.146 58.4468V20.5381H387.136V71.0149C385.353 71.9005 383.22 72.6839 380.737 73.3651C378.255 74.0464 375.712 74.3869 373.109 74.3869C370.651 74.3869 368.301 74.1144 366.06 73.5695C363.818 73.0246 361.854 71.8666 360.167 70.0955C358.479 68.3244 357.142 65.7528 356.154 62.3809C355.166 59.009 354.672 54.462 354.672 48.7399V20.5383ZM406.948 2.14588L406.948 19.823L406.586 21.9688C406.586 21.9006 407.068 21.6792 408.032 21.3045C408.996 20.9298 410.322 20.7425 412.009 20.7425C414.516 20.7425 416.829 21.2705 418.95 22.3263C421.071 23.3821 422.891 24.9999 424.409 27.1797C425.928 29.3595 427.108 32.1355 427.952 35.5074C428.796 38.8793 429.217 42.9154 429.217 47.6157C429.217 51.2942 428.916 54.7514 428.314 57.987C427.711 61.2225 426.711 64.0667 425.313 66.519C423.915 68.9713 422.083 70.9127 419.818 72.3432C417.552 73.7738 414.757 74.489 411.431 74.489H409.515L406.116 74.2847L401.669 73.6716L396.608 72.4454V14.7138H390.607L395.234 2.24785L406.948 2.14588ZM410.418 60.7971C411.575 60.7971 412.672 60.5931 413.708 60.1843C414.745 59.7756 415.636 59.0604 416.384 58.0386C417.131 57.0168 417.733 55.6544 418.191 53.9514C418.649 52.2483 418.878 50.1366 418.878 47.6162C418.878 45.0958 418.661 42.9329 418.227 41.1278C417.793 39.3227 417.215 37.858 416.492 36.7341C415.769 35.6101 414.913 34.7926 413.925 34.2817C412.937 33.7708 411.888 33.5154 410.78 33.5154C410.201 33.5154 409.527 33.5836 408.755 33.7198C407.984 33.856 407.382 33.9922 406.948 34.1284V60.3886C407.478 60.5248 408.02 60.627 408.575 60.6951C409.129 60.7633 409.743 60.7971 410.418 60.7971Z" fill="#111111"/>
</g>
<defs>
<clipPath id="clip0_108_5">
<rect width="353" height="75" fill="white"/>
</clipPath>
</defs>
</svg>
